<?xml version="1.0" encoding="UTF-8" standalone="no"?>
<!DOCTYPE svg PUBLIC "-//W3C//DTD SVG 1.1//EN"
 "http://www.w3.org/Graphics/SVG/1.1/DTD/svg11.dtd">
<!-- Generated by graphviz version 2.38.0 (20140413.2041)
 -->
<!-- Title: snakemake_dag Pages: 1 -->
<svg width="1348pt" height="188pt"
 viewBox="0.00 0.00 1347.50 188.00" xmlns="http://www.w3.org/2000/svg" xmlns:xlink="http://www.w3.org/1999/xlink">
<g id="graph0" class="graph" transform="scale(1 1) rotate(0) translate(4 184)">
<title>snakemake_dag</title>
<polygon fill="white" stroke="none" points="-4,4 -4,-184 1343.5,-184 1343.5,4 -4,4"/>
<!-- 0 -->
<g id="node1" class="node"><title>0</title>
<path fill="none" stroke="#56c9d8" stroke-width="2" d="M638,-36C638,-36 608,-36 608,-36 602,-36 596,-30 596,-24 596,-24 596,-12 596,-12 596,-6 602,-0 608,-0 608,-0 638,-0 638,-0 644,-0 650,-6 650,-12 650,-12 650,-24 650,-24 650,-30 644,-36 638,-36"/>
<text text-anchor="middle" x="623" y="-15.5" font-family="sans" font-size="10.00">all</text>
</g>
<!-- 1 -->
<g id="node2" class="node"><title>1</title>
<path fill="none" stroke="#56d873" stroke-width="2" d="M146,-108C146,-108 12,-108 12,-108 6,-108 1.42109e-14,-102 1.42109e-14,-96 1.42109e-14,-96 1.42109e-14,-84 1.42109e-14,-84 1.42109e-14,-78 6,-72 12,-72 12,-72 146,-72 146,-72 152,-72 158,-78 158,-84 158,-84 158,-96 158,-96 158,-102 152,-108 146,-108"/>
<text text-anchor="middle" x="79" y="-87.5" font-family="sans" font-size="10.00">MoreThanOneFileAsInputRule</text>
</g>
<!-- 1&#45;&gt;0 -->
<g id="edge1" class="edge"><title>1&#45;&gt;0</title>
<path fill="none" stroke="grey" stroke-width="2" d="M158.105,-73.4276C161.105,-72.9294 164.078,-72.4514 167,-72 321.78,-48.0894 507.624,-29.658 585.643,-22.3827"/>
<polygon fill="grey" stroke="grey" stroke-width="2" points="586.287,-25.8381 595.921,-21.4307 585.641,-18.8679 586.287,-25.8381"/>
</g>
<!-- 2 -->
<g id="node3" class="node"><title>2</title>
<path fill="none" stroke="#56d873" stroke-width="2" d="M322,-108C322,-108 188,-108 188,-108 182,-108 176,-102 176,-96 176,-96 176,-84 176,-84 176,-78 182,-72 188,-72 188,-72 322,-72 322,-72 328,-72 334,-78 334,-84 334,-84 334,-96 334,-96 334,-102 328,-108 322,-108"/>
<text text-anchor="middle" x="255" y="-87.5" font-family="sans" font-size="10.00">MoreThanOneFileAsInputRule</text>
</g>
<!-- 2&#45;&gt;0 -->
<g id="edge2" class="edge"><title>2&#45;&gt;0</title>
<path fill="none" stroke="grey" stroke-width="2" d="M334.151,-73.6948C337.139,-73.1218 340.096,-72.5553 343,-72 430.013,-55.3602 532.291,-36.0681 585.908,-25.975"/>
<polygon fill="grey" stroke="grey" stroke-width="2" points="586.784,-29.3718 595.964,-24.0826 585.489,-22.4926 586.784,-29.3718"/>
</g>
<!-- 3 -->
<g id="node4" class="node"><title>3</title>
<path fill="none" stroke="#56d873" stroke-width="2" d="M498,-108C498,-108 364,-108 364,-108 358,-108 352,-102 352,-96 352,-96 352,-84 352,-84 352,-78 358,-72 364,-72 364,-72 498,-72 498,-72 504,-72 510,-78 510,-84 510,-84 510,-96 510,-96 510,-102 504,-108 498,-108"/>
<text text-anchor="middle" x="431" y="-87.5" font-family="sans" font-size="10.00">MoreThanOneFileAsInputRule</text>
</g>
<!-- 3&#45;&gt;0 -->
<g id="edge3" class="edge"><title>3&#45;&gt;0</title>
<path fill="none" stroke="grey" stroke-width="2" d="M477.968,-71.8761C511.327,-59.714 555.483,-43.6154 586.274,-32.3897"/>
<polygon fill="grey" stroke="grey" stroke-width="2" points="587.574,-35.6411 595.771,-28.9274 585.177,-29.0645 587.574,-35.6411"/>
</g>
<!-- 4 -->
<g id="node5" class="node"><title>4</title>
<path fill="none" stroke="#d88d56" stroke-width="2" d="M706,-108C706,-108 540,-108 540,-108 534,-108 528,-102 528,-96 528,-96 528,-84 528,-84 528,-78 534,-72 540,-72 540,-72 706,-72 706,-72 712,-72 718,-78 718,-84 718,-84 718,-96 718,-96 718,-102 712,-108 706,-108"/>
<text text-anchor="middle" x="623" y="-93" font-family="sans" font-size="10.00">CondaBCFToolsMultipleThreadsRule</text>
<text text-anchor="middle" x="623" y="-82" font-family="sans" font-size="10.00">file: 1</text>
</g>
<!-- 4&#45;&gt;0 -->
<g id="edge4" class="edge"><title>4&#45;&gt;0</title>
<path fill="none" stroke="grey" stroke-width="2" d="M623,-71.6966C623,-63.9827 623,-54.7125 623,-46.1124"/>
<polygon fill="grey" stroke="grey" stroke-width="2" points="626.5,-46.1043 623,-36.1043 619.5,-46.1044 626.5,-46.1043"/>
</g>
<!-- 5 -->
<g id="node6" class="node"><title>5</title>
<path fill="none" stroke="#d88d56" stroke-width="2" d="M914,-108C914,-108 748,-108 748,-108 742,-108 736,-102 736,-96 736,-96 736,-84 736,-84 736,-78 742,-72 748,-72 748,-72 914,-72 914,-72 920,-72 926,-78 926,-84 926,-84 926,-96 926,-96 926,-102 920,-108 914,-108"/>
<text text-anchor="middle" x="831" y="-93" font-family="sans" font-size="10.00">CondaBCFToolsMultipleThreadsRule</text>
<text text-anchor="middle" x="831" y="-82" font-family="sans" font-size="10.00">file: 2</text>
</g>
<!-- 5&#45;&gt;0 -->
<g id="edge5" class="edge"><title>5&#45;&gt;0</title>
<path fill="none" stroke="grey" stroke-width="2" d="M780.383,-71.9656C743.222,-59.4594 693.585,-42.7545 660.07,-31.4754"/>
<polygon fill="grey" stroke="grey" stroke-width="2" points="660.812,-28.0323 650.218,-28.1598 658.579,-34.6667 660.812,-28.0323"/>
</g>
<!-- 6 -->
<g id="node7" class="node"><title>6</title>
<path fill="none" stroke="#d88d56" stroke-width="2" d="M1122,-108C1122,-108 956,-108 956,-108 950,-108 944,-102 944,-96 944,-96 944,-84 944,-84 944,-78 950,-72 956,-72 956,-72 1122,-72 1122,-72 1128,-72 1134,-78 1134,-84 1134,-84 1134,-96 1134,-96 1134,-102 1128,-108 1122,-108"/>
<text text-anchor="middle" x="1039" y="-93" font-family="sans" font-size="10.00">CondaBCFToolsMultipleThreadsRule</text>
<text text-anchor="middle" x="1039" y="-82" font-family="sans" font-size="10.00">file: 3</text>
</g>
<!-- 6&#45;&gt;0 -->
<g id="edge6" class="edge"><title>6&#45;&gt;0</title>
<path fill="none" stroke="grey" stroke-width="2" d="M943.822,-72.9845C853.854,-57.8456 723.506,-35.9121 660.24,-25.2664"/>
<polygon fill="grey" stroke="grey" stroke-width="2" points="660.758,-21.8045 650.316,-23.5965 659.597,-28.7074 660.758,-21.8045"/>
</g>
<!-- 7 -->
<g id="node8" class="node"><title>7</title>
<path fill="none" stroke="#d85656" stroke-width="2" d="M1327.5,-108C1327.5,-108 1164.5,-108 1164.5,-108 1158.5,-108 1152.5,-102 1152.5,-96 1152.5,-96 1152.5,-84 1152.5,-84 1152.5,-78 1158.5,-72 1164.5,-72 1164.5,-72 1327.5,-72 1327.5,-72 1333.5,-72 1339.5,-78 1339.5,-84 1339.5,-84 1339.5,-96 1339.5,-96 1339.5,-102 1333.5,-108 1327.5,-108"/>
<text text-anchor="middle" x="1246" y="-87.5" font-family="sans" font-size="10.00">CondaBCFToolsMultipleParamsRule</text>
</g>
<!-- 7&#45;&gt;0 -->
<g id="edge7" class="edge"><title>7&#45;&gt;0</title>
<path fill="none" stroke="grey" stroke-width="2" d="M1152.29,-73.2799C1149.16,-72.8354 1146.05,-72.4073 1143,-72 962.533,-47.9338 745.545,-29.0365 660.126,-21.988"/>
<polygon fill="grey" stroke="grey" stroke-width="2" points="660.389,-18.4979 650.137,-21.1683 659.817,-25.4744 660.389,-18.4979"/>
</g>
<!-- 8 -->
<g id="node9" class="node"><title>8</title>
<path fill="none" stroke="#70d856" stroke-width="2" d="M203,-180C203,-180 163,-180 163,-180 157,-180 151,-174 151,-168 151,-168 151,-156 151,-156 151,-150 157,-144 163,-144 163,-144 203,-144 203,-144 209,-144 215,-150 215,-156 215,-156 215,-168 215,-168 215,-174 209,-180 203,-180"/>
<text text-anchor="middle" x="183" y="-159.5" font-family="sans" font-size="10.00">BasicRule</text>
</g>
<!-- 8&#45;&gt;1 -->
<g id="edge8" class="edge"><title>8&#45;&gt;1</title>
<path fill="none" stroke="grey" stroke-width="2" d="M157.559,-143.876C144.213,-134.893 127.676,-123.763 113.222,-114.034"/>
<polygon fill="grey" stroke="grey" stroke-width="2" points="114.789,-110.87 104.539,-108.19 110.881,-116.677 114.789,-110.87"/>
</g>
<!-- 8&#45;&gt;2 -->
<g id="edge10" class="edge"><title>8&#45;&gt;2</title>
<path fill="none" stroke="grey" stroke-width="2" d="M200.798,-143.697C209.604,-135.135 220.382,-124.656 230.001,-115.304"/>
<polygon fill="grey" stroke="grey" stroke-width="2" points="232.677,-117.585 237.407,-108.104 227.797,-112.566 232.677,-117.585"/>
</g>
<!-- 8&#45;&gt;3 -->
<g id="edge12" class="edge"><title>8&#45;&gt;3</title>
<path fill="none" stroke="grey" stroke-width="2" d="M215.065,-147.198C218.065,-146.06 221.076,-144.975 224,-144 262.766,-131.073 306.497,-119.458 343.743,-110.419"/>
<polygon fill="grey" stroke="grey" stroke-width="2" points="344.66,-113.799 353.565,-108.058 343.024,-106.992 344.66,-113.799"/>
</g>
<!-- 9 -->
<g id="node10" class="node"><title>9</title>
<path fill="none" stroke="#56d8a9" stroke-width="2" d="M121,-180C121,-180 19,-180 19,-180 13,-180 7,-174 7,-168 7,-168 7,-156 7,-156 7,-150 13,-144 19,-144 19,-144 121,-144 121,-144 127,-144 133,-150 133,-156 133,-156 133,-168 133,-168 133,-174 127,-180 121,-180"/>
<text text-anchor="middle" x="70" y="-165" font-family="sans" font-size="10.00">ParallelProcessingRule</text>
<text text-anchor="middle" x="70" y="-154" font-family="sans" font-size="10.00">file: 1</text>
</g>
<!-- 9&#45;&gt;1 -->
<g id="edge9" class="edge"><title>9&#45;&gt;1</title>
<path fill="none" stroke="grey" stroke-width="2" d="M72.2247,-143.697C73.2165,-135.983 74.4084,-126.712 75.5141,-118.112"/>
<polygon fill="grey" stroke="grey" stroke-width="2" points="78.997,-118.469 76.8009,-108.104 72.0541,-117.576 78.997,-118.469"/>
</g>
<!-- 10 -->
<g id="node11" class="node"><title>10</title>
<path fill="none" stroke="#56d8a9" stroke-width="2" d="M347,-180C347,-180 245,-180 245,-180 239,-180 233,-174 233,-168 233,-168 233,-156 233,-156 233,-150 239,-144 245,-144 245,-144 347,-144 347,-144 353,-144 359,-150 359,-156 359,-156 359,-168 359,-168 359,-174 353,-180 347,-180"/>
<text text-anchor="middle" x="296" y="-165" font-family="sans" font-size="10.00">ParallelProcessingRule</text>
<text text-anchor="middle" x="296" y="-154" font-family="sans" font-size="10.00">file: 2</text>
</g>
<!-- 10&#45;&gt;2 -->
<g id="edge11" class="edge"><title>10&#45;&gt;2</title>
<path fill="none" stroke="grey" stroke-width="2" d="M285.865,-143.697C281.148,-135.644 275.438,-125.894 270.218,-116.982"/>
<polygon fill="grey" stroke="grey" stroke-width="2" points="273.092,-114.964 265.018,-108.104 267.052,-118.502 273.092,-114.964"/>
</g>
<!-- 11 -->
<g id="node12" class="node"><title>11</title>
<path fill="none" stroke="#56d8a9" stroke-width="2" d="M491,-180C491,-180 389,-180 389,-180 383,-180 377,-174 377,-168 377,-168 377,-156 377,-156 377,-150 383,-144 389,-144 389,-144 491,-144 491,-144 497,-144 503,-150 503,-156 503,-156 503,-168 503,-168 503,-174 497,-180 491,-180"/>
<text text-anchor="middle" x="440" y="-165" font-family="sans" font-size="10.00">ParallelProcessingRule</text>
<text text-anchor="middle" x="440" y="-154" font-family="sans" font-size="10.00">file: 3</text>
</g>
<!-- 11&#45;&gt;3 -->
<g id="edge13" class="edge"><title>11&#45;&gt;3</title>
<path fill="none" stroke="grey" stroke-width="2" d="M437.775,-143.697C436.783,-135.983 435.592,-126.712 434.486,-118.112"/>
<polygon fill="grey" stroke="grey" stroke-width="2" points="437.946,-117.576 433.199,-108.104 431.003,-118.469 437.946,-117.576"/>
</g>
</g>
</svg>
